<svg width="635" height="498" viewBox="0 0 635 498" fill="none" xmlns="http://www.w3.org/2000/svg">
<path d="M290.461 81L305.537 35.1699H328.293L343.623 81H326.293L323.405 72.748H309.79L306.901 81H290.461ZM316.962 45.3262L310.393 63.4805H323.024L316.962 45.3262Z" fill="white"/>
<path d="M118.81 262.291L127.48 287.752C132.171 301.52 136.359 312.531 136.905 312.531C136.914 312.531 136.922 312.527 136.929 312.521C137.529 311.991 154.499 262.71 154.499 262.71H187.389L147.709 378.329H124.849C124.849 378.329 100.449 307.858 100.549 307.59L75.079 377.441H52.449L13.269 262.291L45.999 262.312C45.999 262.312 63.928 313.133 64.167 313.133L64.169 313.131L82.059 262.29H118.81M2.095 254.284L5.696 264.868L44.876 380.017L46.721 385.441H52.45H75.08H80.678L82.596 380.181L100.281 331.681C101.805 336.115 103.452 340.894 105.099 345.669C111.188 363.324 117.29 380.946 117.29 380.946L119.154 386.329H124.85H147.71H153.422L155.276 380.926L194.956 265.308L198.593 254.71H187.389H154.499H148.793L146.935 260.106C143.961 268.741 140.014 280.137 136.639 289.782C136.13 288.319 135.6 286.781 135.052 285.171L126.383 259.711L124.537 254.29H118.81H82.06H76.394L74.513 259.635L64.06 289.341C60.607 279.635 56.604 268.324 53.544 259.65L51.662 254.316L46.005 254.312L13.275 254.291L2.095 254.284Z" fill="#FFE81F"/>
<path d="M625.35 261.842L625.275 292.147C625.275 292.147 592.632 292.038 576.036 292.038C570.515 292.038 566.77 292.051 566.592 292.083C563.732 292.604 561.911 298.685 562.722 301.354C563.121 302.704 566.113 307.114 569.352 311.164C572.581 315.215 577.892 321.845 581.132 325.893C589.451 336.274 590.592 338.323 591.361 344.284C592.611 353.965 588.032 364.444 579.532 371.354C571.014 378.284 571.387 378.333 508.149 378.333C507.233 378.333 506.314 378.333 505.372 378.333C466.912 378.323 446.572 378.004 443.611 377.344C438.351 376.154 429.971 369.314 407.821 348.064C399.854 340.428 392.512 333.742 392.135 333.74C392.125 333.74 392.12 333.746 392.12 333.756L391.859 378.335L355.96 378.176L355.739 263.196H401.01H435.8C459.93 264.067 476.26 288.106 473.01 303.436C472.27 306.915 470.39 311.957 468.829 314.636C465.619 320.136 457.449 327.196 450.818 330.227C448.369 331.335 446.369 332.625 446.369 333.085C446.369 334.795 454.43 342.734 457.449 343.995C460.028 345.074 467.539 345.314 500.659 345.314C504.541 345.314 508.067 345.316 511.267 345.316C544.56 345.316 542.885 345.076 545.457 339.575C547.258 335.745 545.888 333.455 533.218 319.185C517.167 303.214 518.848 295.564 518.738 289.914C518.509 283.144 523.84 261.845 551.55 261.845L625.35 261.842ZM410.28 314.962C425.65 314.962 428.77 314.723 432.041 313.302C443.081 308.502 443.671 294.323 433.081 288.031C430.762 286.65 427.781 286.422 411.121 286.331L391.842 286.23C392.001 286.38 391.781 313.8 391.781 313.8C391.781 313.8 396.61 314.962 410.28 314.962ZM633.369 253.842H625.348H551.548C535.516 253.842 526.033 260.17 520.902 265.479C512.555 274.112 510.589 284.983 510.74 290.108C510.748 290.535 510.743 290.973 510.738 291.43C510.665 299.759 511.892 309.188 527.397 324.676C530.462 328.128 535.59 333.915 537.528 336.791C533.29 337.312 522.548 337.312 511.266 337.312H506.474L500.658 337.31C480.754 337.31 463.97 337.253 460.53 336.574C460.049 336.26 459.374 335.72 458.632 335.076C465.509 330.841 472.462 324.277 475.736 318.664C477.723 315.251 479.914 309.421 480.834 305.096C482.874 295.471 479.509 283.86 471.833 274.028C462.877 262.557 449.848 255.694 436.087 255.198L435.942 255.192H435.797H401.007H355.736H347.72L347.736 263.209L347.957 378.188L347.973 386.137L355.922 386.172L391.821 386.331L399.809 386.366L399.856 378.378L400.011 351.672C400.744 352.368 401.502 353.091 402.28 353.837C426.507 377.077 434.639 383.516 441.842 385.145C443.821 385.586 447.095 386.317 505.365 386.333H508.144C539.69 386.333 555.524 386.333 564.943 385.423C575.732 384.38 579.202 381.933 584.404 377.698L584.577 377.557C595.262 368.87 600.9 355.727 599.292 343.257C598.244 335.147 596.098 331.778 587.37 320.889L584.776 317.649C581.736 313.85 578.063 309.262 575.601 306.174C573.615 303.69 572.055 301.485 571.114 300.041C572.35 300.038 573.955 300.036 576.032 300.036C592.427 300.036 624.919 300.144 625.245 300.146L633.253 300.172L633.273 292.164L633.348 261.858L633.369 253.842ZM399.831 306.67C399.844 304.649 399.856 302.383 399.869 300.113C399.879 298.113 399.888 296.109 399.891 294.273L411.078 294.331C417.507 294.366 427.181 294.419 429.067 294.954C431.474 296.415 432.817 298.674 432.671 301.014C432.591 302.278 431.989 304.602 428.85 305.965C427.1 306.725 424.31 306.962 410.28 306.962C405.83 306.962 402.397 306.833 399.831 306.67Z" fill="#FFE81F"/>
<path d="M283 261.371L323.29 377.291L290.46 377.441L285.01 360.031L226.31 359.56L221.13 376.991L188.63 376.65L228.41 261.421L283 261.371ZM256.599 278.367C256.516 278.7 251.455 292.586 246.377 306.471C241.257 320.471 236.12 334.471 236.049 334.58C236.049 334.581 236.048 334.581 236.049 334.581C236.049 334.581 236.049 334.581 236.049 334.58C236.185 334.54 254.365 334.5 266.017 334.5C271.47 334.5 275.492 334.509 275.567 334.529C275.568 334.533 275.568 334.534 275.568 334.534C275.568 334.534 275.568 334.533 275.568 334.531C275.568 334.531 275.568 334.531 275.567 334.529C275.363 334 256.658 279.043 256.599 278.367C256.6 278.363 256.6 278.361 256.6 278.361C256.599 278.361 256.599 278.363 256.599 278.367ZM288.687 253.366L282.994 253.371L228.404 253.422L222.708 253.427L220.849 258.813L181.069 374.042L177.446 384.536L188.548 384.651L221.048 384.992L227.081 385.055L228.8 379.273L232.266 367.611L279.12 367.986L282.828 379.834L284.593 385.472L290.5 385.446L323.329 385.296L334.524 385.244L330.848 374.67L290.558 258.75L288.687 253.366ZM247.564 326.508C249.079 322.379 251.12 316.798 253.891 309.219C254.76 306.843 255.555 304.668 256.284 302.674C256.947 304.63 257.669 306.758 258.453 309.072C259.099 310.978 261.938 319.342 264.373 326.5C257.133 326.5 251.683 326.501 247.564 326.508Z" fill="#FFE81F"/>
<path d="M296.58 123.012V151.612H239.3V239.082H205.15V151.542L138.29 151.732C130.23 151.732 129.15 158.152 129.15 160.612C129.15 163.632 131.12 166.652 141.94 180.352C148.96 189.252 155.41 198.132 156.26 200.072C160.9 210.752 154.9 227.392 143.97 234.152C136.18 238.965 137.511 239.083 79.662 239.083C76.688 239.083 73.566 239.083 70.27 239.083H8V206.953H105.9L108.79 204.943C110.74 203.583 111.87 201.713 112.3 199.153C112.9 195.473 112.59 194.993 100.5 181.373C86.21 165.273 84.7 162.333 85.44 152.053C86.28 140.323 96.74 123.283 115.02 123.283L296.58 123.012ZM304.58 115L296.567 115.012L115.007 115.282C104.549 115.282 94.836 119.8 87.665 128.004C81.851 134.656 78.035 143.433 77.459 151.481C76.486 164.992 79.596 169.874 94.515 186.683C98.845 191.56 102.962 196.199 104.336 198.169C104.314 198.248 104.294 198.299 104.282 198.328C104.267 198.34 104.244 198.358 104.212 198.38L103.39 198.952H8H0V206.952V239.082V247.082H8H70.27H75.207H79.662C108.184 247.082 122.262 247.055 130.556 246.447C140.046 245.752 143.074 244.124 147.61 241.307L148.176 240.956C162.438 232.135 169.788 211.129 163.598 196.882C161.688 192.524 149.595 177.136 148.222 175.396C144.426 170.589 138.16 162.656 137.168 160.36C137.192 160.167 137.239 159.967 137.289 159.828C137.454 159.786 137.77 159.73 138.29 159.73L197.15 159.563V239.08V247.08H205.15H239.3H247.3V239.08V159.61H296.58H304.58V151.61V123.01V115Z" fill="#FFE81F"/>
<path d="M389.64 123.941L429.82 240.161L397.05 239.981L391.73 222.571L333.291 222.311L328.07 239.081H294.701L334.44 123.941H389.64ZM342.829 197.562L382.63 197.512C382.631 197.512 382.631 197.513 382.631 197.513C382.767 197.513 363.289 140.312 363.159 140.272C363.017 140.267 342.38 197.562 342.829 197.562ZM395.339 115.941H389.64H334.44H328.739L326.879 121.331L287.139 236.472L283.477 247.082H294.702H328.072H333.961L335.711 241.459L339.172 230.338L385.804 230.545L389.403 242.319L391.124 247.948L397.011 247.981L429.781 248.161L441.078 248.223L437.387 237.547L397.207 121.327L395.339 115.941ZM353.943 189.548C356.411 182.521 359.847 172.891 362.957 164.236C365.905 172.88 369.166 182.481 371.545 189.526L353.943 189.548Z" fill="#FFE81F"/>
<path d="M502.488 123.941C528.409 123.941 546.398 124.311 549.858 124.911C557.858 126.301 565.088 130.571 570.508 137.131C576.178 143.991 577.478 147.271 578.218 156.671C579.279 169.941 572.968 181.391 560.518 188.821C556.888 190.991 553.159 193.101 552.228 193.521C550.798 194.171 550.989 194.791 553.548 197.791C555.197 199.721 558.058 202.471 559.898 203.901L563.258 206.511L625.338 207.401L625.947 239.081H587.886C558.447 239.081 549.026 238.811 546.266 237.881C542.136 236.481 532.197 228.061 511.995 208.841L497.575 195.121L497.727 239.081H460.684V123.941H502.488ZM497.03 175.711H516.701C535.842 175.711 536.44 175.651 539.171 173.601C544.052 169.941 545.78 166.171 545.262 160.381C544.732 154.411 542.432 151.301 536.661 148.801C533.411 147.381 530.28 147.151 514.94 147.151H497.03V175.711ZM502.488 115.941H460.688H452.688V123.941V239.081V247.081H460.688H497.731H505.759L505.731 239.053L505.643 213.837L506.483 214.636C531.469 238.409 538.839 243.809 543.701 245.457C547.434 246.716 553.683 247.081 587.889 247.081H625.95H634.104L633.948 238.927L633.339 207.247L633.191 199.513L625.457 199.402L566.055 198.551L564.81 197.584C564.414 197.275 563.934 196.867 563.421 196.405C563.867 196.141 564.275 195.898 564.628 195.688C579.631 186.735 587.494 172.281 586.197 156.035C585.334 145.076 583.377 140.139 576.677 132.035C570.093 124.066 561.056 118.737 551.23 117.03C545.77 116.083 518.349 115.941 502.488 115.941ZM505.03 155.151H514.94C528.967 155.151 531.746 155.384 533.458 156.132C536.708 157.54 537.038 158.223 537.293 161.089C537.549 163.937 537.196 165.083 534.371 167.201C534.278 167.27 534.207 167.324 534.148 167.367C532.283 167.712 525.362 167.712 516.701 167.712H505.031L505.03 155.151Z" fill="#FFE81F"/>
<path d="M246.672 429.17V442.817H232.136V475H217.219V442.817H202.683V429.17H246.672ZM248.259 475V429.17H278.093C281.774 429.508 284.8 430.482 287.17 432.09C289.54 433.698 291.275 435.856 292.375 438.564C293.221 442.627 293.264 445.758 292.502 447.959C291.74 450.16 290.407 452 288.503 453.481C286.599 454.963 283.869 456.126 280.314 456.973L283.742 461.353H297.453V475H279.362L264.826 459.861V475H248.259ZM264.826 440.596V449.038H276.379C276.993 449.038 277.659 448.816 278.378 448.372C279.098 447.906 279.479 446.753 279.521 444.912C279.415 443.156 278.981 442.003 278.22 441.453C277.479 440.881 276.855 440.596 276.347 440.596H264.826ZM296.818 429.17H311.735V475H296.818V429.17ZM327.954 429.17L338.364 464.368L348.901 429.17H367.277L350.932 475H326.589L310.466 429.17H327.954ZM366.008 429.17H380.925V475H366.008V429.17ZM379.655 475L394.731 429.17H417.487L432.817 475H415.488L412.6 466.748H398.984L396.096 475H379.655ZM406.157 439.326L399.587 457.48H412.219L406.157 439.326Z" fill="white"/>
</svg>
